<?xml version="1.0" encoding="utf-8"?>
<!-- Generator: Adobe Illustrator 17.0.1, SVG Export Plug-In . SVG Version: 6.00 Build 0)  -->
<!DOCTYPE svg PUBLIC "-//W3C//DTD SVG 1.1//EN" "http://www.w3.org/Graphics/SVG/1.1/DTD/svg11.dtd">
<svg version="1.1" id="Laag_1" xmlns="http://www.w3.org/2000/svg" xmlns:xlink="http://www.w3.org/1999/xlink" x="0px" y="0px"
	 width="478.571px" height="154.545px" viewBox="0 0 478.571 154.545" enable-background="new 0 0 478.571 154.545"
	 xml:space="preserve">
<path fill-rule="evenodd" clip-rule="evenodd" fill="#FFFFFF" d="M333.821,102.292c-0.943,0.265-1.41,1.006-2.72,0.903
	c0.037-1.241,1.668-0.897,2.045-1.804c-0.132-0.47-0.86,0.324-1.363,0.225c0.026-0.556,0.033-1.085-0.228-1.35
	c-0.983,0.457-2.078-0.136-2.72-0.675c0.262-0.946,1.512-0.903,2.266-1.357c-1.684,0.238-0.311-1.171-1.36-1.568
	c0.145,2.316-2.565,3.001-4.312,2.7c0.328-2.151,1.218-3.752,2.948-4.507c-1.055,0.056-1.006,0.304-1.36-0.45
	c-0.305,0.675-0.437,1.522-1.357,1.578c0.017-1.37-0.635-2.078-1.591-2.478c1.998,4.579-1.856,8.467-4.08,11.038
	c-3.514,0.331-6.184,2.971-9.751,2.693c-2.038-0.152-6.419-2.316-8.619-3.15c-2.621-0.989-6.376-2.005-8.385-3.375
	c-3.349-2.28-6.327-5.8-9.523-8.557c-3.421-2.941-6.826-5.658-9.526-8.338l-10.204,0.231c-5.47,4.027-11.128,8.497-17.008,13.06
	c-2.478,1.929-3.858,4.004-7.256,4.278c-4.728,0.384-9.999,1.079-15.419,1.579c-1.836-1.77-6.052-2.733-8.845-4.957
	c-2.776-2.214-5.896-7.17-2.948-10.135c-0.228-0.146-0.235-0.516-0.682-0.447c-0.681,0.374-0.43,1.674-1.357,1.8
	c-0.126-0.698-0.188-1.466-0.456-2.029c-0.629,0.397-0.639,0.169-1.135,0.453c1.433,0.91,1.909,3.263,1.135,5.178
	c-2.002-0.185-3.365-2.098-4.417-2.634c0.145,0.126-0.295,0.172-0.569,0.159c0.185,0.94,1.608,0.655,1.585,1.8
	c-0.92,0.516-1.797,0.112-2.267-0.45c0.083,0.381-0.175,0.424-0.453,0.45c-0.278,0.728,0.735,0.172,0.453,0.903
	c-0.83,0.142-0.87-0.493-1.588-0.453c0.056,1.218,2.051,0.516,2.041,1.8c-1.267,0.205-1.714-1.337-2.491-0.9
	c0.089,0.801,0.989,0.443,0.45,1.35c2.266,0.152,3.719,1.112,4.765,2.482c-1.724,0.834-3.534,1.482-5.443,0.45
	c0.278,0.814,0.609,0.721,0.678,1.35c0.357-0.483,1.912-0.262,2.041,0.225c-0.026,1.029-1.744,1.562-1.357,2.25
	c0.146-0.297,0.48-0.417,0.903-0.45c0.321,0.645-0.705,1.228,0.228,1.125c2.068-9.272,13.315-0.483,16.782,2.478
	c-3.59,3.326-8.169,6.681-15.422,5.628c-0.9-0.834-1.433-2.032-2.263-2.928c0.093,1.406,0.821,2.18,1.357,3.153
	c-0.751,0.526-2.114,0.351-2.72,0.45c0.04,0.715,1.141,0.367,1.135,1.125c0.986-1.032,3.236-1.555,4.301-0.222
	c-1.489,0.873-2.935,2.107-5.215,1.575c-0.096,1.069,1.168,0.523,0.228,1.353c1.165-0.046,1.598-0.814,2.723-0.9
	c0.056,1.112-1.291,2.012-0.907,2.7c0.176-0.49,0.592-0.549,0.602-0.225c1.032-3.484,4.332-4.97,9.149-4.053
	c-0.096,4.487-0.668,8.494-5.218,8.56c-0.248,0.92,1.39-0.033,0.907,1.122c0.675-0.232,0.87-0.937,1.813-0.897
	c0.41,1.075-0.01,1.499-0.45,2.25c0.969-0.675,1.112-0.146,2.041,0.225c-1.466-1.482-0.086-4.096,1.135-4.953
	c0.956,0.93,1.893,2.796,1.132,4.728c0.639-0.189,0.585,0.318,1.132,0.225c-0.248-0.649-0.47-2.144,0.228-2.475
	c0.82,0.159,1.174,0.784,2.041,0.897c-0.735-1.426,0.973,0.165,0.907-0.897c-5.433,0.132-4.983-5.264-3.63-9.235
	c2.736-0.758,5.46-5.298,8.616-5.854c4.301-0.754,9.228,1.006,14.291,0.675c-1.803,5.42-4.328,12.435-7.485,17.567
	c-2.048,3.319-3.762,5.463-9.073,5.403c-1.38-1.029-3.335-1.496-3.401-3.828c-0.857,0.427-1.218-1.367-1.36-0.228
	c0.576,0.635,1.168,1.241,1.135,2.478c-1.36,0.354-2.571-0.433-2.948,0.222c0.966,0.324,0.923,0.467,0.453,1.357
	c1.505-1.453,3.901-1.141,4.765,0.675c-1.496,1.059-4.675,1.337-5.9,1.35c0.139,0.39,1.079-0.02,1.135,0.45
	c0.066,0.596-0.877,0.179-0.682,0.903c0.9-0.235,1.337-0.93,2.495-0.903c-0.106,0.768-1.244,1.304-0.681,2.028
	c1.356,0.142,0.976-1.433,1.588-2.028c2.131-1.257,5.393-1.403,8.616-1.575c-0.189,4.166-0.384,8.325-4.533,8.557
	c0.192,0.721-0.199,0.853-0.453,1.125c1.244-0.04,1.641-0.92,2.945-0.9c0.281,1.039-0.692,2.002,0,2.707
	c-0.152-0.755,0.47-0.367,0.685-0.232c-0.298-2.468,0.334-4.017,1.813-4.725c0.592,1.436,1.764,3.54,0.453,4.957
	c0.533-0.076,0.937-0.444,1.357,0c0.083-0.622-0.649-1.588,0-2.032c0.705,0.847,1.271,0.953,2.045,1.353
	c0.804-0.112,1.433-1.568,2.492-0.675c-0.159,0.817-0.731,1.224-1.132,1.8c1.611-0.208,0.176,1.214,1.588,1.128
	c-0.963-2.684,1.141-4.07,2.72-4.953c0.337,1.386,1.373,2.088,1.132,4.053c-0.076,0.53-1.482,0.903-0.903,1.35
	c0.566-0.619,1.019-0.334,1.585,0c-0.304-0.681-0.304-1.793,0-2.482c0.473,0.132,0.649,0.562,1.363,0.457
	c-2.667-1.879-2.502-6.168-0.457-8.56c2.406,1.681,5.546,6.131,2.045,8.56c1.661,0.371,1.383-1.185,2.263-1.582
	c0.758,0.377,0.874,1.39,1.588,1.807c-0.01-0.576,0.169-0.278,0.453-0.225c-1.009-1.403-2.144-2.677-2.041-5.185
	c2.7-0.202,4.517,0.473,6.125,1.353c-0.159-0.695-0.159-0.437,0-1.125c-0.976-0.007-1.671-0.298-2.27-0.678
	c0.744-0.013,0.867-0.639,1.813-0.453c-0.235-0.635-0.235-0.933,0-1.575c-1.343,1.201-3.018,2.521-5.44,1.575
	c-1.664-0.642-3.815-4.202-4.537-6.075c-1.052-2.733-2.597-5.714-2.491-8.11c0.109-2.617,2.435-5.526,3.623-8.103
	c1.31-2.822,2.121-6.095,3.633-8.107c1.254-1.674,3.745-2.938,5.668-4.507c5.185-4.235,11.373-10.012,16.554-13.288
	c2.028,6.73-1.645,14.513-3.63,20.72c-1.499,4.685-5.466,8.844-8.163,11.032c-1.648,1.337-4.275,2.581-6.578,1.129
	c-0.91-0.573-1.241-2.889-2.492-1.575c0.705,0.278,1.277,0.685,1.36,1.575c-0.9,0.308-1.363,1.049-2.72,0.903
	c0.519,0.764,1.214,0.334,1.132,1.35c0.327-2.108,3.812-1.793,4.765-0.453c-0.89,1.75-2.611,2.667-4.537,3.382h0.903
	c-0.136,0.47-1.161,0.847-0.222,1.125c0.169-0.738,1.35-1.651,2.038-1.125c-0.179,0.943-1.218,1.049-1.36,2.028
	c0.85-0.503,1.248-0.5,1.588,0.443c0.569-4.083,3.461-5.87,7.028-6.978c-0.741,1.294-0.007,4.993-2.042,4.278
	c0.324,1.985-2.098,3.52-4.308,3.378c-0.179,1.238,1.088-0.006,0.91,0.903c0.926-0.053,0.963-0.999,2.038-0.903
	c0.132,1.181-0.751,1.36-1.135,2.029c0.837-0.116,1.019-0.086,1.813,0.675c-0.685-2.055,0.208-4.229,2.045-4.507
	c0.228,0.298,0.218,0.834,0.45,1.125c-0.566,0.49-1.734,0.384-2.041,1.132c1.485,0.523,1.552-0.096,2.27-0.225
	c-0.083,1.496-1.43,1.734-2.042,2.7c0.88-0.655,1.482,0,2.042-0.225c-0.539-0.48,0.245-1.548,0.678-1.8
	c1.181,0.625,1.413,1.694,2.952,0.9c-0.202,0.926-0.695,1.562-1.135,2.253c0.874-0.096,0.807-0.248,1.36,0.222
	c0.04-0.635-0.195-1.542,0.453-1.575c0.456,0.126,0.847,2.283,1.135,1.125c0.169-0.291-1.35-3.355-0.453-5.632
	c1.433-0.973,2.045-2.766,3.626-3.6c1.784,1.84,4.881,5.168,2.27,9.232c0.334,0.268,0.351,0.854,0.678,1.125
	c0.334-0.417,0.006-1.489,0.45-1.8c0.433,0.49,0.172,1.502,1.138,0.903c-0.499-1.158-0.725-3.785-0.228-5.178
	c1.876,0.609,3.673,1.304,3.63,3.825c0.645-0.48,0.609-0.966,1.357-0.9c-0.586-0.692-1.376-1.185-1.585-2.25
	c0.655-0.251,1.77-0.046,2.267-0.453c-1.152-0.142,0.126-1.035,0.228-1.346c-1.35,0.086-1.334,1.548-3.398,1.125
	c-2.359-0.487-5.771-4.533-6.125-6.535c-0.553-3.101,1.023-6.499,0.45-9.907c2.078-3.646,3.488-7.951,5.443-11.71
	c3.345,4.93,8.606,12.951,9.526,21.17c0.344,3.077,0.076,6.793-1.588,9.007c-0.549,0.732-2.141,1.019-2.038,2.025
	c0.761,0.543,0.966-1.032,2.038-0.9c0.933,1.078-0.897,2.402,0.228,2.925c0.136-1.377,1.343-0.331,2.038,0
	c-0.5-0.966-0.056-2.085,0.682-2.475c0.787,0.42,0.903,1.502,1.585,2.028c0.271-1.456,0.371,0.291,1.363,0
	c-0.222-1.062-0.781-1.859,0.228-2.478c0.433,0.724,0.473,1.337,0.225,2.25c0.692-1.026,0.996-0.347,1.585-0.897
	c-0.943-0.791-1.906-2.756-1.36-4.282c1.277,0.761,1.899,2.167,2.27,3.828c-0.096-1.118,0.678-0.129,0.903-0.678
	c-0.503-0.109-1.132-1.254-0.678-1.572c0.897-0.199,1.234,1.311,1.813,0.675c-0.695-0.225,0.261-0.602,0.228-0.9
	c-6.604-1.625-8.007-9.616-8.391-16.67c5.304,2.339,14.188,4.149,11.796,11.938c0.182,0.688,0.632,0.543,0.225,1.357
	c1.161-0.049,0.328-2.078,1.135-2.482c0.467,0.51,0.46,1.496,0.903,2.025c0.417-0.334,1.122-0.384,1.585-0.675
	c-1.039-1.214-2.796-2.922-2.263-4.95c0.98,0.298,2.078,0.487,2.717,1.125c1.833,6.082,2.386,21.018-6.347,16.21
	c0.444,0.718,0.969,0.844,0.91,1.578c0.354-0.483,1.906-0.258,2.035,0.225c-0.099,0.96-1.767,2.22-0.9,2.7
	c0.291-1.181,0.768-0.294,1.128,0.232c-0.675-2.462,0.834-3.732,2.952-4.057c1.36,1.817-0.4,4.58-0.453,5.632
	c0.096-0.281,0.291-0.463,0.675-0.453c0.268,0.589-0.695,0.97,0.231,0.903c0.262-0.47-0.261-2.329,0.907-2.482
	c0.447,0.536-0.063,2.018,0.453,2.482c0.109-1.423,0.741-0.741,1.357-0.903c-2.211-1.79-1.512-7.699,0-9.682
	c0.887,1.373,2.121,2.399,2.498,4.278c-0.424,0.215-0.758-0.675-0.907,0c1.863,1.075,0.873,4.401-0.457,5.857
	c0.88-0.255,0.9-0.688,1.588-0.678c0.04-0.638-0.192-1.545,0.457-1.575c1.062,0.39,0.089,1.684,0.903,2.022
	c0.086-1.208,0.536-0.649,1.36-0.447c-1.035-0.999-2.756-2.511-1.813-4.728c0.655-0.046,1.151,0.06,1.363,0.453
	c-0.582,0.394-0.51,1.443-0.91,2.025c0.82,0.149,0.619-1.195,1.36-0.453c0.132-0.397-0.271-1.323,0.228-1.35
	c1.075,1.013,0,2.839,0.682,3.382c0.281-0.669,0.324-1.575,1.36-0.903c-0.404-0.804-1.32-1.092-1.131-2.479
	c1.078,0.089,1.634-0.476,2.491,0c-0.556-0.695-0.265-0.9,0.457-1.35c0.096,0.807,0.602,1.205,0.45,2.25
	c0.569-0.116,0.933-0.424,1.363-0.675c-0.542-0.288-0.923-0.735-0.91-1.575c0.503,0.026,1.846,1.112,1.816,0.225
	c-3.372-0.94-5.344-4.447-4.537-8.785c1.158,0.427,3.028,0.149,4.537,0.228c1.052,0.907,2.075,1.84,2.948,2.925
	c0.612,0.516,0.215,2.038,1.585,1.8c0.245-0.841-0.562-0.639-0.453-1.35c-0.122,0-0.258-0.179,0-0.222v0.222
	c0.877,0.642,1.641-0.046,2.495,0c-1.962-0.179-3.947-1.8-4.99-3.603c1.254-1.069,4.56-1.366,5.443,0.228
	c0.45-0.675-1.072-1.072,0.228-1.575c-0.976-0.159-2.3,0.026-2.723-0.678c0.126-0.708,1.687-1.161,1.132-1.803
	c-0.755,1.026-0.03-1.294-0.903-0.897c-0.513,0.165-0.089,1.261-0.228,1.803c-1.691,2.793-6.482,1.876-9.751,1.118
	c-2.594-3.501-7.233-6.171-7.935-10.806c1.022-0.192,1.132,0.529,1.813,0.675c-0.949-1.185,0.305-0.867,0.453-2.025
	c-0.847,0.212-1.181,0.93-2.495,0.675c-0.781-0.572-0.884-1.823-1.36-2.703c1.155-1.228,3.594-0.007,4.083-0.45
	c-1.019-0.083-0.669-0.665-0.91-1.125c-0.109,0.434-1.502,0.728-1.813,0.228c0.139-0.847,1.042-0.917,1.132-1.807
	c-1.142,0.033,0.337-1.138-0.675-1.125c-0.063,1.175-0.986,2.343-2.273,2.932c-0.503-1.307-1.565-3.249-1.585-4.285
	c3.772,1.162,8.212,1.638,12.246,3.153c2.727,1.026,7.753,3.534,9.98,5.407c1.946,1.641,4.387,4.884,4.758,7.432
	c0.139,0.956-0.96,2.352,0.456,2.707c0.185-0.195-0.126-1.621,0.453-2.032c1.039,0.242,1.168,1.393,1.813,2.032
	c-0.05-0.781,0.771-1.303,1.816-1.582c-0.87-0.341-1.271-1.142-1.36-2.25c1.343-0.43,2.108,0.893,2.945,0.222
	c-0.487,0.109-0.434-0.321-0.453-0.675c0.288,0.308,1.108,0.347,1.135-0.222c-0.681-0.45-1.813-0.457-1.588-1.8
	c1.102,0.023,1.115,1.142,2.041,1.35c-0.351-0.966-0.476-0.979,0.225-1.582c-1.863-0.099-3.848-1.277-4.083-2.25
	c2.064-0.172,3.365,0.414,4.311,1.353c-0.225-0.996-0.036-0.592,0.228-1.353c-0.715,0.347-1.396,0.079-1.591-0.675
	c0.533-0.069,0.85-0.354,1.591-0.225c-0.096-0.768-0.615-0.285-0.228-1.125c-7.256,3.302-13.96-2.475-17.914-6.082
	c4.01-1.496,7.309-3.699,12.924-3.6c2.736,0.51,2.925,3.547,5.218,4.5c-0.106-1.098-0.996-1.416-1.135-2.475
	c-0.274,0.023-0.139-0.331,0,0c0.877,0.251,1.575,0.688,2.492,0.9c-0.652-0.884-0.172-0.569,0.228-1.357
	c-1.883-0.602-4.411-0.562-5.218-2.243c1.383-0.539,3.071-1.873,4.99-1.132C332.756,102.9,333.778,103.165,333.821,102.292
	 M204.796,93.51c3.206-2.323,6.422,1.247,7.485,3.831C209.038,96.805,206.484,95.588,204.796,93.51z M239.036,131.793
	c-0.804,3.256-1.393,6.724-4.08,8.107c-0.771-0.06-1.836,0.175-2.27-0.225c-0.585,0.192,0.44,0.989-0.222,1.353
	c-1.83-0.917-3.13-2.756-3.405-4.728c-0.781-5.672,3.696-9.047,6.35-11.714C237.034,126.578,237.719,129.503,239.036,131.793z
	 M260.58,130.443c-1.009,0.188-3.117-0.318-3.176-1.8c0.645-0.566,1.972-0.45,2.72-0.9
	C261.093,127.829,260.342,129.626,260.58,130.443z M257.404,127.287c-0.536-5.562,3.282-8.742,5.896-11.932
	C265.374,121.086,262.516,127.379,257.404,127.287z M308.879,135.397c0.701,0.506,1.307,1.108,1.813,1.803
	c-0.374,1.016-2.445,1.85-3.401,0.9C307.658,137.041,308.333,136.28,308.879,135.397z M306.159,137.2
	c-2.998-2.581-4.08-7.061-4.08-12.613C306.239,125.877,310.692,133.467,306.159,137.2z M280.532,132.918 M280.985,132.472
	c-0.85-1.436-0.139-2.67,0.457-3.828C282.418,129.464,282.332,132.104,280.985,132.472z M284.844,132.693 M283.03,123.912
	c1.625,1.674,3.16,5.532,1.585,8.332C282.309,130.916,282.091,126.658,283.03,123.912z M281.667,109.273
	c-2.2-5.248-4.718-10.175-6.8-15.535c-0.275,0.02-0.142-0.334,0,0c2.392,1.519,4.993,3.736,7.706,5.854
	c2.604,2.025,6.012,3.802,7.713,5.857c1.84,2.23,2.297,5.354,4.083,7.875C288.715,114.958,285.813,110.574,281.667,109.273z
	 M297.54,119.405C297.814,119.385,297.679,119.736,297.54,119.405c-2.594-0.417-3.428-2.597-5.215-3.825
	c0.728-0.556,1.797-0.767,2.945-0.903C295.799,116.48,297.05,117.572,297.54,119.405z M329.513,121.662 M326.565,125.037
	 M324.526,121.211c1.426,0.457,2.389,1.38,2.492,3.153C325.612,123.885,324.434,123.177,324.526,121.211z M329.063,121.662
	c-3.322,0.278-5.486-2.502-7.031-4.729C324.996,116.99,328.391,118.571,329.063,121.662z M322.713,104.32
	c0.347-3.266,5.142-5.883,7.706-2.928c0.357-0.092,0.195-0.705,0.91-0.45C330.774,104.366,326.809,104.409,322.713,104.32z
	 M205.173,116.48c-0.046,0.156-0.116,0.288-0.149,0.453C205.137,116.738,205.177,116.586,205.173,116.48z M212.506,87.878
	 M247.652,118.058c-0.297-0.007-0.205-0.4-0.45-0.45C246.646,117.87,247.454,118.67,247.652,118.058z M270.103,133.368
	c0.04-0.188-0.089-0.212-0.225-0.222C269.835,133.342,269.964,133.355,270.103,133.368z M270.328,133.596
	c0.043-0.192-0.086-0.215-0.225-0.228C270.06,133.564,270.192,133.58,270.328,133.596z M270.328,133.596 M284.387,133.596
	 M318.402,134.043 M292.325,137.421 M231.326,141.7c-0.013,0.391,0.175,0.582,0.456,0.682
	C231.793,141.991,231.604,141.799,231.326,141.7z M241.756,143.053c-0.162-0.615,0.457-0.453,0.46-0.897
	c-0.433-0.424-0.413,0.132-1.135,0C241.038,142.719,241.425,142.858,241.756,143.053z M230.191,142.157 M233.596,142.603"/>
<path fill="#FFFFFF" d="M282.951,57.503c-2.323-0.392-0.566,2.813-8.844,2.531c0-5.797,0-24.937,0-24.937s0.113-2.195,0.681-3.378
	c0.566-1.186-2.776-2.195-5.555-1.687c-3.626,6.133-23.811,26.066-29.816,31.244c-0.794,2.197,0.337,2.534,0.337,2.534l26.418,0.788
	c0,0-0.285,11.316-0.566,12.663c-0.288,1.36-1.721,7.203-1.721,7.203l10.3-0.079l-0.361-19.621c0,0,7.087,0.228,7.881,0.228
	C283.12,64.991,285.671,57.674,282.951,57.503 M265.887,59.811c0,0-18.566,0.323-17.229-0.505
	c1.638-1.021,17.289-18.243,17.289-18.243L265.887,59.811z"/>
<g>
	<path fill="#8ABF57" d="M59.535,64.213H47.282l-4.871-12.671H20.113l-4.604,12.671H3.561L25.288,8.429h11.91L59.535,64.213z
		 M38.797,42.143l-7.686-20.7l-7.534,20.7H38.797z"/>
	<path fill="#8ABF57" d="M65.509,64.213V8.429h18.075c6.849,0,11.315,0.28,13.394,0.837c3.196,0.837,5.873,2.657,8.029,5.46
		c2.156,2.804,3.234,6.426,3.234,10.865c0,3.425-0.622,6.303-1.865,8.638c-1.242,2.334-2.822,4.166-4.737,5.499
		c-1.916,1.33-3.863,2.212-5.842,2.644c-2.688,0.533-6.583,0.799-11.682,0.799h-7.344v21.043H65.509z M76.772,17.866v15.829h6.164
		c4.439,0,7.407-0.291,8.904-0.875s2.67-1.497,3.519-2.74c0.85-1.242,1.276-2.688,1.276-4.338c0-2.03-0.596-3.704-1.788-5.023
		c-1.193-1.319-2.702-2.144-4.528-2.473c-1.345-0.253-4.047-0.381-8.105-0.381H76.772z"/>
	<path fill="#8ABF57" d="M117.487,64.213V8.429h18.075c6.849,0,11.315,0.28,13.394,0.837c3.196,0.837,5.873,2.657,8.029,5.46
		c2.156,2.804,3.234,6.426,3.234,10.865c0,3.425-0.622,6.303-1.865,8.638c-1.242,2.334-2.822,4.166-4.737,5.499
		c-1.916,1.33-3.863,2.212-5.842,2.644c-2.688,0.533-6.583,0.799-11.682,0.799h-7.344v21.043H117.487z M128.751,17.866v15.829h6.164
		c4.439,0,7.407-0.291,8.904-0.875s2.67-1.497,3.519-2.74c0.85-1.242,1.276-2.688,1.276-4.338c0-2.03-0.596-3.704-1.788-5.023
		c-1.193-1.319-2.702-2.144-4.528-2.473c-1.345-0.253-4.047-0.381-8.105-0.381H128.751z"/>
	<path fill="#8ABF57" d="M166.612,46.062l10.959-1.065c0.66,3.678,1.999,6.379,4.014,8.105c2.018,1.726,4.738,2.588,8.163,2.588
		c3.628,0,6.361-0.768,8.199-2.303c1.84-1.534,2.76-3.329,2.76-5.383c0-1.319-0.387-2.442-1.161-3.368
		c-0.773-0.925-2.124-1.731-4.052-2.415c-1.319-0.457-4.325-1.269-9.018-2.435c-6.037-1.497-10.274-3.335-12.709-5.517
		c-3.425-3.069-5.137-6.811-5.137-11.225c0-2.841,0.806-5.499,2.417-7.971c1.61-2.475,3.931-4.358,6.962-5.651
		c3.033-1.294,6.692-1.941,10.979-1.941c7.002,0,12.272,1.535,15.81,4.604c3.54,3.069,5.398,7.167,5.575,12.291l-11.263,0.495
		c-0.481-2.867-1.515-4.927-3.1-6.184c-1.587-1.254-3.964-1.883-7.136-1.883c-3.272,0-5.835,0.672-7.686,2.017
		c-1.193,0.862-1.788,2.017-1.788,3.463c0,1.319,0.558,2.449,1.674,3.387c1.421,1.193,4.871,2.435,10.35,3.729
		c5.479,1.294,9.533,2.632,12.157,4.015c2.627,1.381,4.682,3.272,6.164,5.668c1.486,2.399,2.227,5.36,2.227,8.886
		c0,3.196-0.888,6.189-2.664,8.98c-1.775,2.791-4.287,4.864-7.534,6.222c-3.248,1.357-7.293,2.035-12.138,2.035
		c-7.053,0-12.468-1.63-16.248-4.89C169.605,57.052,167.348,52.302,166.612,46.062z"/>
</g>
<g>
	<path fill="#5AC2DE" d="M294.148,64.213V8.885h11.263v45.928h28.006v9.399H294.148z"/>
	<path fill="#5AC2DE" d="M341.104,64.213V8.429h11.263v55.784H341.104z"/>
	<path fill="#5AC2DE" d="M363.174,64.213V8.429h38.24v9.437h-26.977V31.07h23.288v9.437h-23.288v23.706H363.174z"/>
	<path fill="#5AC2DE" d="M410.699,64.213V8.429h41.364v9.437h-30.101v12.367h28.006v9.399h-28.006v15.183h31.166v9.399H410.699z"/>
</g>
</svg>
